#!OML:ASF H:\Terrain\Patient Classification 1\Walking\steve\steve.ASF
:FULLY-SPECIFIED
:DEGREES
316
root 9.45254 15.5164 22.2573 16.7244 -11.8247 -6.66463
lowerback -0.513228 7.18011 2.42276
upperback -4.74285 9.58871 -2.19443
thorax -3.85006 4.66803 -3.81127
lowerneck -11.501 -2.52517 -3.91289
upperneck 8.08576 -3.25994 4.65395
head 4.43787 -1.44979 1.83635
rclavicle -1.04362e-013 -1.35174e-014
rhumerus -35.2842 5.40101 -85.8264
rradius 41.7635
rwrist -7.16564
rhand -22.2928 -35.2981
rfingers 7.12502
rthumb 4.126 -65.2379
lclavicle -1.04362e-013 -1.35174e-014
lhumerus -53.9021 12.0853 57.4051
lradius 15.3071
lwrist -18.2089
lhand -16.7434 -18.7263
lfingers 7.12502
lthumb 9.48291 11.0403
rfemur 13.9766 11.5144 23.6444
rtibia 24.6527
rfoot 22.0289 1.59903
rtoes 2.31017
lfemur -60.364 7.18896 -15.5007
ltibia 52.9256
lfoot -7.96658 -1.24798
ltoes 2.1098
317
root 9.46557 15.5839 22.4335 16.51 -11.9322 -5.90575
lowerback -0.30349 7.14363 1.56366
upperback -4.56546 9.51612 -2.39888
thorax -3.889 4.65808 -3.57838
lowerneck -11.5923 -2.52502 -4.04783
upperneck 8.02068 -3.24826 4.79683
head 4.43704 -1.4389 1.90264
rclavicle -3.83654e-014 -1.66979e-014
rhumerus -35.0047 4.62594 -85.6304
rradius 40.2214
rwrist -4.78914
rhand -20.0902 -36.3274
rfingers 7.12502
rthumb 6.25271 -66.2151
lclavicle -3.83654e-014 -1.66979e-014
lhumerus -52.6634 12.1277 58.1588
lradius 15.7475
lwrist -17.0729
lhand -17.249 -18.6653
lfingers 7.12502
lthumb 8.99505 11.1229
rfemur 12.4819 11.255 22.7827
rtibia 27.3829
rfoot 23.308 1.17799
rtoes -1.69516
lfemur -59.3636 6.93201 -16.4377
ltibia 52.6866
lfoot -8.58601 -1.43578
ltoes 2.92857
318
root 9.48311 15.6501 22.6158 16.209 -11.9315 -5.23427
lowerback -0.088026 7.10456 0.856636
upperback -4.39812 9.44443 -2.49714
thorax -3.93529 4.64396 -3.31964
lowerneck -11.5072 -2.58684 -4.43036
upperneck 7.99886 -3.29291 4.98885
head 4.42798 -1.4627 2.02155
rclavicle -3.26007e-014 -6.36111e-015
rhumerus -35.1274 4.35655 -85.4987
rradius 38.8892
rwrist -3.73393
rhand -18.9849 -36.4083
rfingers 7.12502
rthumb 7.31977 -66.2617
lclavicle -3.26007e-014 -6.36111e-015
lhumerus -51.5127 12.0136 59.1213
lradius 15.8739
lwrist -16.112
lhand -18.9703 -19.7476
lfingers 7.12502
lthumb 7.33378 10.1053
rfemur 11.1835 10.8935 22.0788
rtibia 29.9179
rfoot 24.6617 -0.663388
rtoes -3.03227
lfemur -58.2591 6.60296 -17.255
ltibia 52.406
lfoot -9.14328 -1.64819
ltoes 4.11037
319
root 9.50414 15.7143 22.7932 16.1118 -11.6394 -4.90835
lowerback 0.180229 7.0441 0.572522
upperback -4.47317 9.35609 -2.48588
thorax -4.21619 4.60333 -3.2024
lowerneck -10.8844 -2.48551 -4.13874
upperneck 7.82705 -3.16663 4.49238
head 4.25368 -1.42956 1.83579
rclavicle -2.98177e-016 -2.38542e-015
rhumerus -35.8084 4.40887 -85.4102
rradius 38.0639
rwrist -3.07483
rhand -17.4471 -37.0038
rfingers 7.12502
rthumb 8.80395 -66.8002
lclavicle -2.98177e-016 -2.38542e-015
lhumerus -50.3801 11.6631 60.2221
lradius 16.5769
lwrist -13.779
lhand -18.3344 -18.2439
lfingers 7.12502
lthumb 7.94756 11.5867
rfemur 9.73108 10.3086 21.8318
rtibia 32.3476
rfoot 25.4974 -1.4117
rtoes -8.33177
lfemur -57.3202 6.20952 -17.7269
ltibia 52.0401
lfoot -9.48822 -1.83458
ltoes 3.48251
320
root 9.51287 15.7771 22.9465 15.9422 -11.2611 -4.28858
lowerback 0.665542 6.91884 -0.129611
upperback -4.54817 9.16037 -2.54149
thorax -4.67868 4.52019 -2.95878
lowerneck -10.6005 -2.42585 -3.9592
upperneck 7.99043 -3.09021 4.12766
head 4.24489 -1.41009 1.70185
rclavicle -3.06128e-014 0
rhumerus -36.2597 4.30819 -85.3623
rradius 37.1807
rwrist -2.08518
rhand -16.179 -37.4461
rfingers 7.12502
rthumb 10.0274 -67.1872
lclavicle -3.06128e-014 0
lhumerus -49.1802 11.5205 61.0265
lradius 16.9165
lwrist -12.6422
lhand -18.7436 -18.2675
lfingers 7.12502
lthumb 7.55263 11.5777
rfemur 8.40969 9.86815 21.4826
rtibia 34.5973
rfoot 25.3701 -2.12895
rtoes -10.9333
lfemur -56.4234 5.73588 -18.4248
ltibia 51.6939
lfoot -9.7118 -2.11372
ltoes 2.52079
321
root 9.51229 15.8178 23.0984 15.8916 -10.7518 -4.07059
lowerback 0.804452 6.76939 -0.539967
upperback -4.4594 8.94863 -2.44042
thorax -4.75183 4.43042 -2.643
lowerneck -10.7472 -2.42553 -4.07761
upperneck 8.28943 -3.08136 4.18479
head 4.36312 -1.40348 1.73737
rclavicle -4.30369e-014 -1.03368e-014
rhumerus -36.5097 4.03603 -85.2372
rradius 36.3843
rwrist -1.03259
rhand -15.7833 -37.4221
rfingers 7.12502
rthumb 10.4092 -67.1444
lclavicle -4.30369e-014 -1.03368e-014
lhumerus -47.7405 10.8902 62.4765
lradius 17.2972
lwrist -10.8737
lhand -19.4511 -18.3322
lfingers 7.12502
lthumb 6.86967 11.5364
rfemur 7.16898 9.69792 21.6427
rtibia 36.8179
rfoot 23.8506 -5.60456
rtoes -2.17291
lfemur -55.7165 5.37904 -18.6731
ltibia 51.4647
lfoot -9.99069 -2.57025
ltoes 3.17725
322
root 9.51917 15.8498 23.257 16.0816 -10.101 -4.56593
lowerback 0.628113 6.64533 -0.0912408
upperback -4.39398 8.81116 -2.19388
thorax -4.55913 4.35357 -2.59533
lowerneck -10.6527 -2.46401 -4.12695
upperneck 8.23568 -3.13568 4.26189
head 4.33541 -1.42857 1.76625
rclavicle -9.22361e-014 -5.56597e-015
rhumerus -36.9785 3.95515 -85.1764
rradius 35.9351
rwrist -0.33363
rhand -15.6198 -37.1445
rfingers 7.12502
rthumb 10.5669 -66.8588
lclavicle -9.22361e-014 -5.56597e-015
lhumerus -46.3141 10.0728 64.0491
lradius 17.908
lwrist -8.76913
lhand -20.3861 -18.1078
lfingers 7.12502
lthumb 5.96708 11.7882
rfemur 5.69097 9.31289 22.4678
rtibia 38.9106
rfoot 21.8826 -6.64671
rtoes 1.99235
lfemur -55.2326 5.19928 -18.2526
ltibia 51.2838
lfoot -10.2767 -3.07377
ltoes 4.01545
323
root 9.53505 15.893 23.4284 16.2312 -9.46838 -5.01494
lowerback 0.269902 6.49521 0.450675
upperback -4.30526 8.63796 -1.96699
thorax -4.22572 4.25837 -2.59205
lowerneck -10.3764 -2.4234 -4.07303
upperneck 8.11278 -3.09316 4.24129
head 4.24924 -1.4108 1.75692
rclavicle -3.95581e-014 -2.14687e-014
rhumerus -37.4672 4.08191 -85.2263
rradius 35.447
rwrist 0.189057
rhand -15.6267 -36.5377
rfingers 7.12502
rthumb 10.5603 -66.2524
lclavicle -3.95581e-014 -2.14687e-014
lhumerus -44.9315 9.93988 65.0315
lradius 18.4393
lwrist -7.50484
lhand -21.4101 -18.1371
lfingers 7.12502
lthumb 4.97834 11.7844
rfemur 4.07817 8.31933 23.1251
rtibia 40.7912
rfoot 20.8222 -2.50689
rtoes -9.5029
lfemur -54.5338 5.07851 -18.002
ltibia 51.0482
lfoot -10.7699 -3.56326
ltoes 3.36219
324
root 9.55566 15.9583 23.6372 16.0792 -8.85908 -4.80316
lowerback -0.246278 6.31107 0.460461
upperback -4.13514 8.39474 -1.89596
thorax -3.77692 4.14623 -2.43878
lowerneck -10.315 -2.42915 -4.20862
upperneck 8.44597 -3.11275 4.42734
head 4.34722 -1.41369 1.83496
rclavicle -5.05907e-014 1.19271e-014
rhumerus -38.1125 3.98312 -85.2004
rradius 34.994
rwrist 1.0147
rhand -15.5074 -36.1636
rfingers 7.12502
rthumb 10.6754 -65.8724
lclavicle -5.05907e-014 1.19271e-014
lhumerus -43.5513 9.68529 65.9984
lradius 18.7221
lwrist -6.71925
lhand -22.6297 -18.4821
lfingers 7.12502
lthumb 3.80074 11.4638
rfemur 2.79259 6.92908 22.9678
rtibia 42.6297
rfoot 18.6545 1.78117
rtoes -20.2114
lfemur -53.2393 4.56996 -18.384
ltibia 50.6847
lfoot -11.6481 -3.99808
ltoes 3.20402
325
root 9.56753 16.0327 23.8293 15.7939 -8.38196 -4.28068
lowerback -0.46949 6.15837 0.0520617
upperback -3.94596 8.18253 -1.92719
thorax -3.51517 4.05662 -2.20539
lowerneck -10.559 -2.64116 -4.49892
upperneck 8.98453 -3.40698 4.82711
head 4.57814 -1.53913 1.98156
rclavicle -8.21975e-014 8.74653e-015
rhumerus -38.6616 3.61259 -85.0967
rradius 34.7041
rwrist 1.85944
rhand -15.1743 -36.3146
rfingers 7.12502
rthumb 10.9967 -66.0066
lclavicle -8.21975e-014 8.74653e-015
lhumerus -42.1955 8.84301 67.257
lradius 19.4539
lwrist -5.47265
lhand -23.3932 -19.0502
lfingers 7.12502
lthumb 3.06341 10.9075
rfemur 1.56142 6.03603 22.5406
rtibia 44.2803
rfoot 15.8557 3.67842
rtoes -22.135
lfemur -51.8673 3.89672 -18.9427
ltibia 50.1513
lfoot -12.3232 -4.22684
ltoes 3.41087
326
root 9.55991 16.0771 23.9302 15.9162 -8.2396 -4.36864
lowerback -0.00912443 6.11358 -0.181685
upperback -4.02446 8.11728 -1.83303
thorax -3.90358 4.02742 -2.0468
lowerneck -10.8929 -2.70848 -4.4279
upperneck 9.37253 -3.52051 4.92348
head 4.7591 -1.57996 1.98772
rclavicle 9.34288e-015 -1.82882e-014
rhumerus -38.9416 2.99974 -85.0038
rradius 34.2825
rwrist 2.65211
rhand -15.0595 -36.3031
rfingers 7.12502
rthumb 11.1073 -65.9891
lclavicle 9.34288e-015 -1.82882e-014
lhumerus -40.8717 7.973 68.4507
lradius 20.7844
lwrist -3.44077
lhand -22.862 -19.1634
lfingers 7.12502
lthumb 3.57636 10.7864
rfemur -0.49388 6.3072 23.0097
rtibia 45.9426
rfoot 13.1552 4.33657
rtoes -19.4006
lfemur -51.3971 3.84929 -18.7985
ltibia 49.5812
lfoot -12.2742 -4.36666
ltoes 3.7341
327
root 9.56529 16.1101 24.0925 15.6604 -7.96286 -3.82405
lowerback -0.0895653 5.96702 -0.673231
upperback -3.88246 7.90916 -1.90241
thorax -3.77308 3.93926 -1.82773
lowerneck -10.7748 -2.75359 -4.52898
upperneck 9.39181 -3.60179 5.18706
head 4.75618 -1.60857 2.08113
rclavicle 1.23246e-014 7.95139e-015
rhumerus -39.3284 2.41676 -84.9696
rradius 33.695
rwrist 3.39764
rhand -15.4182 -35.4744
rfingers 7.12502
rthumb 10.7613 -65.1788
lclavicle 1.23246e-014 7.95139e-015
lhumerus -39.619 7.19775 69.5102
lradius 21.9643
lwrist -1.45694
lhand -22.1168 -18.0715
lfingers 7.12502
lthumb 4.29598 11.865
rfemur -1.54531 5.92362 22.5869
rtibia 47.4166
rfoot 10.0501 6.11545
rtoes -15.683
lfemur -50.1851 3.69893 -19.5496
ltibia 49.0067
lfoot -12.4543 -4.87296
ltoes 4.75116
